<svg width="106" height="16" viewBox="0 0 106 16" xmlns="http://www.w3.org/2000/svg" xmlns:xlink="http://www.w3.org/1999/xlink"><symbol id="a"><path d="M15.04 15h-3V9.5c0-1.08.095-2.178-1.387-2.178-1.502 0-1.614 1.963-1.614 3.177V15h-3V5.01h3V6c.5-.5 1.133-1.22 2.537-1.22 2.923 0 3.463 1.992 3.463 4.498V15zM2.54 3a1.5 1.5 0 1 1-.08-3 1.5 1.5 0 0 1 .08 3zm-1.5 2h3v10h-3V5z"/></symbol><use xlink:href="#a" fill="#3d3e42"/><use x="18" xlink:href="#a" fill="#fff"/><use x="90" xlink:href="#a" fill="#00669a"/></svg>