<svg width="106" height="16" viewBox="0 0 106 16" xmlns="http://www.w3.org/2000/svg" xmlns:xlink="http://www.w3.org/1999/xlink"><symbol id="a"><path d="M10.763 7.927c-.091-1.77-1.404-2.833-2.99-2.833h-.06c-1.83 0-2.844 1.44-2.844 3.074 0 1.83 1.228 2.986 2.837 2.986 1.795 0 2.976-1.314 3.061-2.87l-.004-.357zm-3.04-4.416c1.222 0 2.372.54 3.216 1.387V4.9c0-.406.273-.712.653-.712l.096-.001c.594 0 .716.562.716.74l.003 6.317c-.042.413.427.627.686.362 1.015-1.043 2.228-5.359-.63-7.86C9.799 1.415 6.224 1.8 4.323 3.11c-2.02 1.394-3.313 4.478-2.057 7.375 1.369 3.16 5.287 4.103 7.616 3.163 1.179-.476 1.724 1.118.499 1.639-1.85.789-7.001.71-9.407-3.459C-.652 9.014-.565 4.062 3.746 1.496 7.045-.466 11.393.078 14.015 2.816c2.74 2.863 2.58 8.223-.093 10.308-1.21.946-3.01.025-2.998-1.355l-.013-.451a4.499 4.499 0 0 1-3.188 1.325c-2.417 0-4.542-2.126-4.542-4.541 0-2.44 2.125-4.59 4.542-4.59z"/></symbol><use xlink:href="#a" fill="#3d3e42"/><use x="18" xlink:href="#a" fill="#fff"/></svg>