<svg width="106" height="16" viewBox="0 0 106 16" xmlns:xlink="http://www.w3.org/1999/xlink" xmlns="http://www.w3.org/2000/svg"><symbol id="a"><path d="M11.9 15.002c-.754.768-1.559.061-2.146-.503-.504-.485-1.11-1.093-1.637-1.506-1.377 1.45-2.495 3.194-3.625 2.229-1.355-1.157 1.305-2.852 1.953-3.851-.675-.151-1.813-.518-2.348-.925-.537-.41-.636-1.349.013-1.814.777-.56 1.3.056 2.217.353 3.479 1.119 4.825-2.018 5.854-.179.878 1.568-2.109 2.26-2.467 2.503 1.436 1.374 3.276 2.586 2.187 3.693zM4.06 3.697C4.411 1.383 6.647.23 8.541.554c2.231.38 3.446 2.432 3.176 4.322-.728 5.119-8.431 3.92-7.657-1.179zm3.894 2.231c2.064-.025 2.039-3.303-.168-3.148-2.091.147-1.937 3.174.168 3.148z"/></symbol><use xlink:href="#a" fill="#3d3e42"/><use xlink:href="#a" x="18" fill="#fff"/><use xlink:href="#a" x="90" fill="#f2720c"/></svg>