<?xml version="1.0" encoding="UTF-8" standalone="no"?>
<svg width="86px" height="106px" viewBox="0 0 86 106" version="1.1" xmlns="http://www.w3.org/2000/svg" xmlns:xlink="http://www.w3.org/1999/xlink" xmlns:sketch="http://www.bohemiancoding.com/sketch/ns">
    <!-- Generator: Sketch 3.5.2 (25235) - http://www.bohemiancoding.com/sketch -->
    <title>ico_earth</title>
    <desc>Created with Sketch.</desc>
    <defs></defs>
    <g id="Сотрудники-за-рубежом" stroke="none" stroke-width="1" fill="none" fill-rule="evenodd" sketch:type="MSPage">
        <g id="icons_materials" sketch:type="MSArtboardGroup" transform="translate(-839.000000, -706.000000)" fill="#0024B5">
            <g id="ico" sketch:type="MSLayerGroup" transform="translate(851.000000, 711.000000)">
                <path d="M9.74846305,53.9967842 C7.36453476,58.1160826 6,62.8988682 6,68 C6,83.462625 18.5375,96 34,96 C49.462625,96 62,83.462625 62,68 C62,57.6372832 56.3688843,48.5883194 48.0000042,43.7465726 L48,33.9999892 C48,28.4771477 43.5273801,24 37.9960546,24 L10.0039454,24 C4.47891891,24 0,28.4750951 0,33.9999892 L0,44.0000108 C0,49.4372265 4.3480374,53.8609217 9.74846305,53.9967842 Z M17.8382089,54 C16.5488342,54.5602037 15.3404635,55.7603929 15.85,57.187 C16.1215,57.832 19.407,57.508875 17.1625,58.912 C16.9255,59.06 17.32625,60.98675 17.3375,61.337 C17.488375,62.391125 18.97975,63.66975 20,62.6495 C20.7945,61.855 20.698,61.98075 21.7125,62.387 C23.587625,63.324625 25.8485,64.2075 27.3375,65.7245 C28.10325,66.5145 28.548125,68.798625 29.55,69.299625 C30.687625,69.8665 31.909875,69.881875 32.7875,70.96225 C33.552375,71.85475 32.499625,73.359125 31.75,73.84975 C31.290875,74.12525 30.24875,76.90675 29.775,77.55 C29.526125,78.046625 28.267125,78.265125 27.8125,78.3625 C27.438875,78.41575 26.873125,79.445 26.6625,79.7125 C25.80275,80.57225 25.6255,81.43925 24.55,82.15625 C22.266875,83.6785 21.811375,85.085875 22.30475,87.686875 C22.503125,88.733 22.9855,89.286375 23.674875,89.678 C23.969875,89.81875 24.267875,89.952375 24.568125,90.080875 C24.967125,90.23075 25.406,90.3735 25.877125,90.543875 C27.607,91.169875 29.40975,91.591 31.237125,91.802 C34.719875,92.204 38.285875,91.84975 41.61425,90.745 C43.491,90.121875 45.288375,89.2635 46.9535,88.197 C47.7115,87.711625 47.80725,86.267 48.3125,85.224875 C49.258375,83.198375 48.09475,81.05075 49.8,79.349875 C51.355125,77.652625 50.194125,76.98175 50.207875,75.081375 C50.217125,73.78575 51.207875,72.886 50.75,71.5125 C50.568375,71.058625 49.89525,71.950375 49.6375,71.437375 C49.028875,70.52325 47.060375,71.224875 46.159625,71.09525 C44.4855,70.85425 43.152625,69.331625 42.012625,68.224875 C41.37525,67.589375 41.9595,65.67175 42.128375,64.964 C42.567375,63.121 42.041625,60.7975 44.475,60.224875 C45.06125,60.108 45.172875,59.079625 45.75,58.887375 C46.35925,58.70125 46.98275,58.45225 47.614,58.349875 C48.74625,58.16625 49.7325,58.62375 50.83125,58.643625 C52.107125,58.66675 52.708375,59.281 53.675,60.028125 C54.60225,60.74475 55.197625,60.387 56.32475,60.637375 C57.173375,60.637375 56.46225,59.96225 56.183375,59.585375 C55.854125,59.3125 55.389875,59.392375 55.121625,59.33125 C53.15275,58.881875 52.30625,56.616 50.6345,55.669375 C49.927875,55.26925 49.479125,55.39575 49.2875,55.6375 C49.166375,55.790125 49.3945,57.12625 49.395875,57.166625 C49.314375,57.56225 48.139625,57.712 47.7875,57.8 C46.68,58.06375 44.1825,55.58175 45.8875,55.0125 C46.4495,54.82525 49.349375,54.440875 48.92525,53.1625 C48.545875,52.350375 49.12425,51.52825 48.193875,51.40625 C47.222625,51.279 47.409625,50.546875 46.375,50.425 C46.1847771,50.3932388 46.0497373,50.2543018 45.9537688,50.0648466 C44.1279429,52.457151 41.2477234,54 38.0072479,54 L38,54 L38,66 L24,54 L22.2101852,54 C22.1878587,54.0940025 22.1680716,54.1974798 22.15,54.312 C22.10825,54.61275 22.107,56.0025 21.7875,56.162 C21.2876151,56.3495979 20.9587068,54.7242916 20.0875326,54 L17.8382089,54 Z M38.0007795,28 C41.3140575,28 44,30.6866258 44,33.9970619 L44,44.0029381 C44,47.3150239 41.3201835,50 38.009763,50 L34,50 L34,57 L26,50 L9.99706188,50 C6.68497606,50 4,47.3133742 4,44.0029381 L4,33.9970619 C4,30.6849761 6.68662393,28 9.99922047,28 L38.0007795,28 Z M18.462375,86.291125 C18.403875,86.2415 18.3455,86.191625 18.2875,86.141375 C17.857,85.767375 17.43725,85.37725 17.03,84.97 C16.6065,84.5465 16.20075,84.109875 15.81325,83.661125 C15.808875,83.656 15.8045,83.650875 15.800125,83.64575 C15.7205,83.5535 15.643,83.46 15.564875,83.3665 C9.10425,75.558875 8.157375,64.1255 13.575,55.3875 C14.33475,56.14725 13.062375,57.6405 14.5125,58.6375 C15.153,59.08825 15.765125,58.907375 15.6375,59.7375 C15.513375,60.543625 16.306875,60.529375 16.425,61.2375 C16.78025,62.791125 18.825875,63.56775 17.6625,65.3125 C16.52275,66.890625 15.5385,68.653625 16.4,70.6625 C16.68175,71.395 17.389875,72.14475 17.92775,72.693 C18.904375,73.68875 18.849875,73.0915 18.849875,74.35 C18.830375,74.896625 19.5075,75.462125 19.437375,75.8125 C19.31225,76.813875 19.074375,77.80375 18.949875,78.8 C18.725875,82.37975 18.93375,85.88275 21.612375,88.5625 C20.61625,87.96175 19.657875,87.281375 18.741375,86.52625 C18.647875,86.448875 18.555,86.370125 18.462375,86.291125 L18.462375,86.291125 Z" id="Shape" sketch:type="MSShapeGroup"></path>
                <path d="M40.36,0 C30.236,0 22,8.306 22,18.518 C22,24.086 24.408,29.218 28.642,32.752 L28.642,44.294 L37.85,36.856 C49.128,38.442 58.72,29.558 58.72,18.516 C58.718,8.306 50.482,0 40.36,0 L40.36,0 Z M32.13,20.614 C30.648,20.614 29.448,19.402 29.448,17.906 C29.448,16.41 30.65,15.198 32.13,15.198 C33.61,15.198 34.812,16.41 34.812,17.906 C34.812,19.402 33.612,20.614 32.13,20.614 L32.13,20.614 Z M40.36,20.614 C38.878,20.614 37.678,19.402 37.678,17.906 C37.678,16.41 38.88,15.198 40.36,15.198 C41.84,15.198 43.042,16.41 43.042,17.906 C43.042,19.402 41.842,20.614 40.36,20.614 L40.36,20.614 Z M48.59,20.614 C47.108,20.614 45.908,19.402 45.908,17.906 C45.908,16.41 47.11,15.198 48.59,15.198 C50.07,15.198 51.272,16.41 51.272,17.906 C51.272,19.402 50.072,20.614 48.59,20.614 L48.59,20.614 Z" id="Shape" sketch:type="MSShapeGroup"></path>
            </g>
        </g>
    </g>
</svg>