<?xml version="1.0" encoding="UTF-8" standalone="no"?>
<svg width="70px" height="70px" viewBox="0 0 70 70" version="1.1" xmlns="http://www.w3.org/2000/svg" xmlns:xlink="http://www.w3.org/1999/xlink" xmlns:sketch="http://www.bohemiancoding.com/sketch/ns">
    <!-- Generator: Sketch 3.3.2 (12043) - http://www.bohemiancoding.com/sketch -->
    <title>ico_origami</title>
    <desc>Created with Sketch.</desc>
    <defs></defs>
    <g id="Вакансии-4" stroke="none" stroke-width="1" fill="none" fill-rule="evenodd" sketch:type="MSPage">
        <g id="icons" sketch:type="MSArtboardGroup" transform="translate(-548.000000, -638.000000)" fill="#000000">
            <path d="M608.599503,648.373903 L555.22145,669.03459 C552.223447,670.195258 552.265447,671.97726 555.314117,672.995927 L568.74213,677.479932 L573.958135,693.755281 C574.582136,695.808617 576.332138,696.247284 577.847472,694.729282 L584.99948,687.564608 C585.030146,687.533942 585.058146,687.503942 585.08748,687.473942 L598.185493,697.377285 C600.750828,699.317287 603.378831,698.323286 604.025498,695.169283 L612.87484,651.998573 C613.521508,648.84457 611.597506,647.213902 608.599503,648.373903 L608.599503,648.373903 Z M599.928161,659.923914 L577.716806,680.755935 L577.716139,680.756602 L577.714139,680.758602 C577.324139,681.125935 577.002805,681.831936 576.956805,682.365937 L576.956805,682.365937 L576.365471,689.20661 C576.066804,692.609947 575.53147,691.425279 574.877469,689.381277 L570.627465,676.291931 L598.467493,658.46058 C602.773497,655.777244 602.773497,657.321912 599.928161,659.923914 L599.928161,659.923914 Z" id="Shape-Copy-2" sketch:type="MSShapeGroup"></path>
        </g>
    </g>
</svg>