<?xml version="1.0" encoding="UTF-8" standalone="no"?>
<svg width="70px" height="70px" viewBox="0 0 70 70" version="1.1" xmlns="http://www.w3.org/2000/svg" xmlns:xlink="http://www.w3.org/1999/xlink" xmlns:sketch="http://www.bohemiancoding.com/sketch/ns">
    <!-- Generator: Sketch 3.3.2 (12043) - http://www.bohemiancoding.com/sketch -->
    <title>ico_pencil</title>
    <desc>Created with Sketch.</desc>
    <defs></defs>
    <g id="Вакансии-4" stroke="none" stroke-width="1" fill="none" fill-rule="evenodd" sketch:type="MSPage">
        <g id="icons" sketch:type="MSArtboardGroup" transform="translate(-388.000000, -638.000000)" fill="#000000">
            <path d="M444.265018,651.825761 C439.590772,647.055249 436.079021,647.770737 436.079021,647.770737 L419.70356,664.458991 L400.988665,683.531028 L397.716115,699.264707 L413.154416,695.928705 L448.246505,660.170182 C448.245927,660.170182 448.946775,656.594506 444.265018,651.825761 L444.265018,651.825761 Z M411.487661,693.19005 L407.09706,694.153106 C406.673997,693.344257 406.16372,692.539829 405.231343,691.585613 C404.298485,690.634836 403.504399,690.113283 402.710313,689.683076 L403.655218,685.207152 L404.92537,683.918004 C404.92537,683.918004 407.316782,683.965641 410.008387,686.714351 C412.704328,689.465025 412.755885,691.895009 412.755885,691.895009 L411.487661,693.19005 Z M408.013323,671.875338 L410.225067,669.621696 L400.186128,659.389328 L409.155018,650.248153 L411.227517,652.360463 L408.433369,655.208284 C407.8215,655.829552 407.822655,656.840069 408.433369,657.461337 C409.042928,658.08496 410.032089,658.08496 410.643958,657.461337 L413.438106,654.613516 L417.260125,658.506598 L414.464822,661.356774 C413.854108,661.978042 413.854108,662.988559 414.465978,663.609826 C414.801091,663.951965 415.248871,664.087408 415.688562,664.053253 L421.404546,658.226291 L411.167428,647.792526 C410.058089,646.661877 408.161813,646.751387 406.942695,647.994512 L397.974961,657.136275 C396.756421,658.378811 396.668021,660.309157 397.777938,661.442161 L408.013323,671.875338 Z M448.221082,685.55795 L437.990319,675.130663 L432.135667,681.097778 C432.172645,681.444628 432.300335,681.786178 432.56207,682.05294 C433.171628,682.676564 434.160211,682.676564 434.771503,682.05294 L437.566806,679.204531 L441.38767,683.099968 L438.592367,685.948377 C437.981653,686.569645 437.981653,687.580162 438.592367,688.200841 C439.204237,688.825053 440.192819,688.825053 440.804111,688.200841 L443.598259,685.35302 L445.812315,687.610195 L445.811159,687.610195 L436.844002,696.751959 L426.81084,686.526068 L424.599096,688.779121 L434.831014,699.206997 C435.941509,700.338234 437.836052,700.248136 439.055747,699.007367 L448.023481,689.866192 C449.24491,688.621301 449.331577,686.690365 448.221082,685.55795 Z" id="Shape-Copy-3" sketch:type="MSShapeGroup"></path>
        </g>
    </g>
</svg>