<?xml version="1.0" encoding="UTF-8" standalone="no"?>
<svg width="70px" height="70px" viewBox="0 0 70 70" version="1.1" xmlns="http://www.w3.org/2000/svg" xmlns:xlink="http://www.w3.org/1999/xlink" xmlns:sketch="http://www.bohemiancoding.com/sketch/ns">
    <!-- Generator: Sketch 3.3.2 (12043) - http://www.bohemiancoding.com/sketch -->
    <title>ico_megaphone</title>
    <desc>Created with Sketch.</desc>
    <defs></defs>
    <g id="Вакансии-4" stroke="none" stroke-width="1" fill="none" fill-rule="evenodd" sketch:type="MSPage">
        <g id="icons" sketch:type="MSArtboardGroup" transform="translate(-468.000000, -638.000000)" fill="#000000">
            <path d="M507.271264,656.481276 L494.000264,661.491276 C491.086264,662.604276 486.210264,664.435276 483.302264,665.549276 L470.213264,670.555276 C467.306264,671.672276 467.239264,673.503276 470.152264,674.620276 L477.889264,677.593276 C477.487264,678.744276 477.266264,679.982276 477.266264,681.271276 C477.266264,687.434276 482.262264,692.429276 488.424264,692.429276 C493.078264,692.429276 497.066264,689.579276 498.739264,685.532276 L507.263264,688.690276 C510.171264,689.816276 513.030264,688.909276 513.030264,686.698276 L513.030264,676.622276 L513.030264,668.554276 L513.030264,658.478276 C513.032264,656.267276 510.174264,655.360276 507.271264,656.481276 L507.271264,656.481276 Z M488.425264,687.924276 C484.755264,687.924276 481.770264,684.939276 481.770264,681.269276 C481.770264,680.549276 481.886264,679.858276 482.098264,679.207276 L483.182264,679.625276 C486.094264,680.737276 490.850264,682.567276 493.758264,683.683276 L494.510264,683.961276 C493.474264,686.294276 491.137264,687.924276 488.425264,687.924276 Z M530.091579,654.685 C529.672579,654.252 529.096579,654.005 528.492579,654 L528.472579,654 C527.874579,654 527.303579,654.236 526.880579,654.659 L526.659579,654.88 C525.790579,655.749 525.778579,657.154 526.633579,658.038 C530.473579,662.006 532.587579,667.23 532.587579,672.751 C532.587579,678.271 530.473579,683.496 526.633579,687.464 C525.779579,688.348 525.790579,689.753 526.661579,690.622 L526.882579,690.843 C527.304579,691.266 527.876579,691.501 528.472579,691.501 L528.492579,691.501 C529.096579,691.495 529.672579,691.249 530.091579,690.815 C534.807579,685.947 537.404579,679.531 537.404579,672.75 C537.405579,665.969 534.807579,659.553 530.091579,654.685 Z M522.97857,663.685 C522.55857,663.251 521.98057,663.005 521.37657,663 L521.35857,663 C520.76057,663 520.18857,663.238 519.76457,663.661 L519.65857,663.769 C518.79057,664.638 518.77857,666.042 519.63457,666.925 C521.31057,668.656 522.23257,670.937 522.23257,673.346 C522.23257,675.754 521.31057,678.034 519.63457,679.766 C518.78057,680.65 518.79057,682.053 519.65857,682.922 L519.76457,683.03 C520.18857,683.452 520.76057,683.69 521.35857,683.69 L521.37657,683.69 C521.98057,683.685 522.55857,683.439 522.97857,683.005 C525.49957,680.401 526.88857,676.971 526.88857,673.344 C526.88857,669.717 525.49957,666.288 522.97857,663.685 Z" id="Shape-Copy" sketch:type="MSShapeGroup"></path>
        </g>
    </g>
</svg>