<?xml version="1.0" encoding="UTF-8" standalone="no"?>
<svg width="94px" height="95px" viewBox="0 0 94 95" version="1.1" xmlns="http://www.w3.org/2000/svg" xmlns:xlink="http://www.w3.org/1999/xlink" xmlns:sketch="http://www.bohemiancoding.com/sketch/ns">
    <!-- Generator: Sketch 3.3.2 (12043) - http://www.bohemiancoding.com/sketch -->
    <title>ico_3</title>
    <desc>Created with Sketch.</desc>
    <defs></defs>
    <g id="Вакансии-4" stroke="none" stroke-width="1" fill="none" fill-rule="evenodd" sketch:type="MSPage">
        <g id="icons" sketch:type="MSArtboardGroup" transform="translate(-515.000000, -497.000000)" fill="#FFFFFF">
            <path d="M608.200962,544.75 C608.200962,518.745431 587.205531,497.75 561.200962,497.75 C560.096392,497.75 559.200962,498.645431 559.200962,499.75 C559.200962,500.854569 560.096392,501.75 561.200962,501.75 C584.996392,501.75 604.200962,520.954569 604.200962,544.75 C604.200962,560.242709 595.992948,574.244294 582.934957,581.88432 L585.65435,570.105333 C585.902824,569.029074 585.231771,567.955165 584.155512,567.706691 C583.079252,567.458217 582.005344,568.129269 581.75687,569.205529 L577.707751,586.74419 L595.246412,590.793309 C596.322671,591.041783 597.39658,590.370731 597.645054,589.294471 C597.893528,588.218212 597.222476,587.144303 596.146216,586.895829 L586.179926,584.594929 C599.738358,576.09977 608.200962,561.188796 608.200962,544.75 Z M515.200962,544.845012 C515.200962,570.849582 536.196392,591.845012 562.200962,591.845012 C563.305531,591.845012 564.200962,590.949582 564.200962,589.845012 C564.200962,588.740443 563.305531,587.845012 562.200962,587.845012 C538.405531,587.845012 519.200962,568.640443 519.200962,544.845012 C519.200962,529.352303 527.408976,515.350718 540.466967,507.710692 L537.747574,519.489679 C537.4991,520.565939 538.170152,521.639847 539.246412,521.888321 C540.322671,522.136796 541.39658,521.465743 541.645054,520.389483 L545.694173,502.850822 L528.155512,498.801703 C527.079252,498.553229 526.005344,499.224282 525.75687,500.300541 C525.508396,501.376801 526.179448,502.450709 527.255708,502.699184 L537.221998,505.000083 C523.663565,513.495242 515.200962,528.406217 515.200962,544.845012 Z M546,541.71 L537.997545,541.71 C537.446616,541.71 537,542.153353 537,542.719369 L537,544.700631 C537,545.25809 537.446311,545.71 537.997545,545.71 L546,545.71 L546,553.712455 C546,554.263384 546.443353,554.71 547.009369,554.71 L548.990631,554.71 C549.54809,554.71 550,554.263689 550,553.712455 L550,545.71 L558.002455,545.71 C558.553384,545.71 559,545.266647 559,544.700631 L559,542.719369 C559,542.16191 558.553689,541.71 558.002455,541.71 L550,541.71 L550,533.707545 C550,533.156616 549.556647,532.71 548.990631,532.71 L547.009369,532.71 C546.45191,532.71 546,533.156311 546,533.707545 L546,541.71 L546,541.71 Z M579.652952,535.332899 C579.652952,531.443627 576.857538,528 571.145169,528 C567.985135,528 564.401424,529.809116 564.401424,529.809116 C563.897044,530.040586 563.636964,530.654105 563.815435,531.1649 L564.335778,532.654157 C564.516524,533.171467 565.059639,533.381697 565.547403,533.140176 C565.547403,533.140176 567.944622,531.767733 570.091824,531.767733 C573.332885,531.767733 574.872388,533.671855 574.872388,536.062137 C574.872388,539.424737 571.428762,541.004754 568.7954,541.004754 L567.802826,541.004754 C567.254642,541.004754 566.810251,541.444355 566.810251,541.995458 L566.810251,543.376651 C566.810251,543.923801 567.248434,544.367354 567.819128,544.367354 L568.876427,544.367354 C572.482106,544.367354 575.804193,546.190451 575.804193,550.120236 C575.804193,552.834624 574.02161,555.670552 569.686692,555.670552 C567.17487,555.670552 564.565076,554.341328 564.565076,554.341328 C564.059813,554.11332 563.506022,554.35626 563.330886,554.875832 L562.754151,556.586812 C562.577789,557.110019 562.85196,557.709884 563.356528,557.910355 C563.356528,557.910355 566.729224,559.438284 569.889258,559.438284 C576.817024,559.438284 580.62527,555.265419 580.62527,550.282289 C580.62527,545.987884 577.667803,543.19247 574.224176,542.544258 C577.708316,541.166807 579.652952,538.452419 579.652952,535.332899 L579.652952,535.332899 L579.652952,535.332899 Z" id="Shape" sketch:type="MSShapeGroup"></path>
        </g>
    </g>
</svg>