<svg width="106" height="16" viewBox="0 0 106 16" xmlns:xlink="http://www.w3.org/1999/xlink" xmlns="http://www.w3.org/2000/svg"><symbol id="a"><path d="M16 3.038a6.563 6.563 0 0 1-1.885.517 3.292 3.292 0 0 0 1.443-1.816 6.574 6.574 0 0 1-2.085.796A3.283 3.283 0 0 0 7.88 5.53 9.32 9.32 0 0 1 1.115 2.1 3.281 3.281 0 0 0 2.13 6.481a3.27 3.27 0 0 1-1.487-.41v.042A3.285 3.285 0 0 0 3.276 9.33a3.287 3.287 0 0 1-1.483.057 3.286 3.286 0 0 0 3.067 2.28A6.586 6.586 0 0 1 0 13.026 9.291 9.291 0 0 0 5.032 14.5c6.038 0 9.34-5.001 9.34-9.34 0-.142-.004-.283-.01-.424A6.672 6.672 0 0 0 16 3.037"/></symbol><use xlink:href="#a" fill="#3d3e42"/><use xlink:href="#a" x="18" fill="#fff"/><use xlink:href="#a" x="90" fill="#55acee"/></svg>